# xmcd
#
# Track frame offsets:
#	150
#	9922
#	20165
#	29750
#	39562
#	51442
#	63232
#	75225
#	86395
#	95887
#
# Disc length: 1398 seconds
#
# Revision: 1
# Processed by: cddbd v1.4PL0 Copyright (c) Steve Scherf et al.
# Submitted via: EasyCDDAExtractor 5.0.6
#
DISCID=7805740a
DTITLE=Sleepy LaBeef - Road Warrior
DYEAR=1900
DGENRE=Rockabilly
TTITLE0=Every Day
TTITLE1=Go Ahead On Baby
TTITLE2=I'm Too Broke
TTITLE3=Everybody's Got To Have Somebody
TTITLE4=You Can't Catch Me
TTITLE5=Completely Destroyed
TTITLE6=I Feel A Lot More Like I Do Now
TTITLE7=If I Go Right I'm Wrong
TTITLE8=Sure  Beats The Heck Outta Settlin' Down
TTITLE9=A Man In My Position
EXTD=
EXTT0=
EXTT1=
EXTT2=
EXTT3=
EXTT4=
EXTT5=
EXTT6=
EXTT7=
EXTT8=
EXTT9=
PLAYORDER=
